<?xml version="1.0" encoding="utf-8"?>
<!-- Generator: Adobe Illustrator 18.1.1, SVG Export Plug-In . SVG Version: 6.00 Build 0)  -->
<svg version="1.1" id="Laag_1" xmlns="http://www.w3.org/2000/svg" xmlns:xlink="http://www.w3.org/1999/xlink" x="0px" y="0px"
	 viewBox="0 0 300 120" enable-background="new 0 0 300 120" xml:space="preserve">
<g>
	<g>
		<rect y="45.3" width="139.6" height="27.9"/>
		<rect y="90.6" fill="#DADADA" width="139.6" height="27.9"/>
		<rect fill="#8B2301" width="139.6" height="27.9"/>
	</g>
	<g>
		<path fill="#FFFFFF" d="M156.6,26.1c1.3,0.8,3.4,1.7,5.6,1.7c3.9,0,5.8-2.1,5.8-4.6c0-2.7-1.7-4.1-5.2-5.5
			c-4.1-1.5-6.3-3.7-6.3-6.6c0-3.5,2.8-6.6,7.7-6.6c2.3,0,4.3,0.6,5.5,1.5l-0.9,2c-0.9-0.6-2.5-1.4-5-1.4c-3.2,0-4.8,2-4.8,4.2
			c0,2.6,1.7,3.7,5.2,5c4.1,1.5,6.4,3.5,6.4,7.2c0,4.2-3.3,7-8.4,7c-2.4,0-4.6-0.6-6.3-1.7L156.6,26.1z"/>
		<path fill="#FFFFFF" d="M176.7,16.9c0,7.8,4.3,10.8,9.5,10.8c3.7,0,5.5-0.7,6.9-1.4l0.6,1.9c-0.9,0.5-3.5,1.6-7.8,1.6
			c-7.2,0-11.7-5-11.7-12.2c0-8.1,4.8-13.2,11.2-13.2c8.2,0,9.7,7.5,9.7,11c0,0.6,0,1-0.1,1.4L176.7,16.9L176.7,16.9z M192.6,14.9
			c0.1-3.4-1.4-8.5-7.4-8.5c-5.5,0-7.9,4.8-8.3,8.5H192.6z"/>
		<path fill="#FFFFFF" d="M201.5,12.2c0-2.4-0.1-4.9-0.2-7.3h2.3l0.1,4.9h0.2c1.1-3,3.7-5.5,7.1-5.5c0.3,0,0.8,0.1,1,0.1v2.3
			c-0.3-0.1-0.8-0.1-1.2-0.1c-3.4,0-5.9,2.9-6.6,6.8c-0.2,0.7-0.2,1.5-0.2,2.3v13.5h-2.5L201.5,12.2L201.5,12.2z"/>
		<path fill="#FFFFFF" d="M217.7,4.9l5.8,15.1c1,2.4,1.7,4.5,2.4,6.5h0.1c0.7-2,1.6-4.2,2.6-6.5l5.9-15.1h2.6l-10.1,24.4h-2.2
			L215,4.9H217.7z"/>
		<path fill="#FFFFFF" d="M241.9,29.3V4.9h2.5v24.4H241.9z"/>
		<path fill="#FFFFFF" d="M269.9,28.2c-1.1,0.5-3.7,1.6-7.3,1.6c-7.2,0-11.9-5.1-11.9-12.4c0-7.7,5.4-13,12.8-13
			c3.1,0,5.6,0.9,6.6,1.5l-0.9,2c-1.2-0.6-3.1-1.4-5.9-1.4c-6.7,0-10.1,5-10.1,10.7c0,6.4,4.1,10.6,9.9,10.6c3,0,4.9-0.8,6.2-1.4
			L269.9,28.2z"/>
		<path fill="#FFFFFF" d="M276.2,16.9c0,7.8,4.3,10.8,9.5,10.8c3.7,0,5.5-0.7,6.9-1.4l0.6,1.9c-0.9,0.5-3.5,1.6-7.8,1.6
			c-7.2,0-11.7-5-11.7-12.2c0-8.1,4.8-13.2,11.2-13.2c8.2,0,9.7,7.5,9.7,11c0,0.6,0,1-0.1,1.4L276.2,16.9L276.2,16.9z M292.1,14.9
			c0.1-3.4-1.4-8.5-7.4-8.5c-5.5,0-7.9,4.8-8.3,8.5H292.1z"/>
	</g>
	<g>
		<path fill="#FFFFFF" d="M155.3,37.6h2.5v16.2h0.1c1.7-3.1,4.8-5.1,9.1-5.1c6.3,0,10.7,5.2,10.7,12.5c0,8.6-5.7,13-11.1,13
			c-4.1,0-7-1.6-8.9-5h-0.1l-0.2,4.4H155c0.2-1.7,0.2-3.8,0.2-5.7V37.6z M157.8,64.2c0,0.6,0.1,1.2,0.2,1.8c1.1,3.7,4.3,6.1,8.2,6.1
			c5.7,0,9-4.6,9-10.9c0-5.6-3.1-10.5-8.8-10.5c-3.7,0-7.1,2.4-8.3,6.5c-0.2,0.6-0.3,1.3-0.3,2.1L157.8,64.2L157.8,64.2z"/>
		<path fill="#FFFFFF" d="M203.3,67.7c0,2.1,0.1,4.1,0.2,5.9h-2.3l-0.2-4.3h-0.1c-1.3,2.3-4.1,4.9-8.5,4.9c-3.2,0-8.5-1.6-8.5-10.7
			V49.3h2.5V63c0,5.3,1.7,9,6.6,9c3.7,0,6.3-2.5,7.4-4.9c0.2-0.8,0.5-1.7,0.5-2.7V49.3h2.5L203.3,67.7L203.3,67.7z"/>
		<path fill="#FFFFFF" d="M211.1,56.6c0-2.4-0.1-4.9-0.2-7.3h2.3l0.1,4.9h0.2c1.1-3,3.7-5.5,7.1-5.5c0.3,0,0.8,0.1,1,0.1v2.3
			c-0.3-0.1-0.7-0.1-1.2-0.1c-3.4,0-5.9,2.9-6.6,6.8c-0.2,0.7-0.2,1.5-0.2,2.3v13.5h-2.4V56.6z"/>
		<path fill="#FFFFFF" d="M226.8,61.2c0,7.8,4.3,10.8,9.5,10.8c3.7,0,5.5-0.7,6.9-1.4l0.6,1.9c-0.9,0.5-3.5,1.6-7.8,1.6
			c-7.2,0-11.7-5-11.7-12.2c0-8.1,4.8-13.2,11.2-13.2c8.2,0,9.7,7.5,9.7,11c0,0.6,0,1-0.1,1.4L226.8,61.2L226.8,61.2z M242.7,59.3
			c0.1-3.4-1.4-8.5-7.4-8.5c-5.5,0-7.9,4.8-8.3,8.5H242.7z"/>
		<path fill="#FFFFFF" d="M267.8,67.8c0,1.9,0.1,3.9,0.3,5.8h-2.3l-0.3-3.5h-0.1c-1.3,1.9-4,4.1-8,4.1c-5,0-7.3-3.4-7.3-6.7
			c0-5.6,5-9,15.2-8.9V58c0-2.4-0.5-7.2-6.4-7.1c-2.2,0-4.5,0.6-6.3,1.8l-0.8-1.8c2.3-1.4,5.1-2.1,7.3-2.1c7.2,0,8.6,5.3,8.6,9.6
			V67.8z M265.3,60.6c-5.5-0.2-12.6,0.6-12.6,6.5c0,3.5,2.4,5,5,5c4.2,0,6.6-2.5,7.4-4.9c0.2-0.5,0.2-1,0.2-1.4L265.3,60.6
			L265.3,60.6z"/>
		<path fill="#FFFFFF" d="M294.5,67.7c0,2.1,0.1,4.1,0.2,5.9h-2.3l-0.2-4.3h-0.1c-1.3,2.3-4.1,4.9-8.5,4.9c-3.2,0-8.5-1.6-8.5-10.7
			V49.3h2.5V63c0,5.3,1.7,9,6.6,9c3.7,0,6.3-2.5,7.4-4.9c0.3-0.8,0.5-1.7,0.5-2.7V49.3h2.5L294.5,67.7L294.5,67.7z"/>
	</g>
	<g>
		<path fill="#FFFFFF" d="M164.9,84h5.9v22c0,9.4-4.3,12.5-10.7,12.5c-1.7,0-3.7-0.3-5-0.8l0.8-5c0.9,0.3,2.3,0.6,3.7,0.6
			c3.4,0,5.5-1.6,5.5-7.5L164.9,84L164.9,84z"/>
		<path fill="#FFFFFF" d="M195.1,112c0,2.2,0.1,4.4,0.4,5.9h-5.3l-0.5-2.7h-0.1c-1.4,1.9-3.8,3.3-6.9,3.3c-4.7,0-7.4-3.6-7.4-7.3
			c0-6.1,5.2-9.3,13.9-9.3v-0.5c0-1.6-0.6-4.3-4.8-4.3c-2.3,0-4.7,0.8-6.3,1.8l-1.2-4.1c1.7-1.1,4.8-2.1,8.5-2.1
			c7.5,0,9.7,5,9.7,10.4L195.1,112L195.1,112z M189.3,105.9c-4.2-0.1-8.2,0.9-8.2,4.6c0,2.4,1.5,3.5,3.4,3.5c2.4,0,4.1-1.6,4.6-3.4
			c0.2-0.5,0.2-0.9,0.2-1.3L189.3,105.9L189.3,105.9z"/>
		<path fill="#FFFFFF" d="M201.3,100.7c0-2.8-0.1-5.2-0.2-7.3h5.2l0.3,3.7h0.2c1-1.9,3.6-4.2,7.5-4.2c4.1,0,8.3,2.8,8.3,10.6v14.6
			h-5.9V104c0-3.5-1.3-6.2-4.5-6.2c-2.4,0-4,1.7-4.6,3.7c-0.2,0.5-0.3,1.3-0.3,2v14.5h-5.9L201.3,100.7L201.3,100.7z"/>
		<path fill="#FFFFFF" d="M228.5,112.2c1.3,0.9,3.8,1.8,6,1.8c2.6,0,3.8-1.2,3.8-2.8c0-1.7-0.9-2.5-3.8-3.6
			c-4.6-1.6-6.4-4.2-6.4-7.1c0-4.3,3.4-7.7,8.8-7.7c2.6,0,4.9,0.6,6.3,1.4l-1.2,4.3c-1-0.6-2.9-1.4-4.9-1.4c-2.1,0-3.2,1.1-3.2,2.6
			c0,1.6,1.1,2.3,4.1,3.4c4.3,1.6,6.2,3.8,6.3,7.5c0,4.5-3.3,7.7-9.5,7.7c-2.8,0-5.4-0.7-7.1-1.7L228.5,112.2z"/>
		<path fill="#FFFFFF" d="M253,107.4c0.1,4.4,3.4,6.4,7.2,6.4c2.7,0,4.6-0.5,6.5-1.1l0.9,4.2c-2,0.9-4.8,1.6-8.2,1.6
			c-7.6,0-12.1-4.9-12.1-12.4c0-6.8,3.9-13.2,11.4-13.2c7.6,0,10.1,6.6,10.1,11.9c0,1.2-0.1,2.1-0.2,2.6L253,107.4L253,107.4z
			 M263.2,103c0.1-2.3-0.9-6-4.9-6c-3.7,0-5.2,3.5-5.5,6H263.2z"/>
		<path fill="#FFFFFF" d="M273.6,100.7c0-2.8-0.1-5.2-0.2-7.3h5.2l0.3,3.7h0.1c1-1.9,3.6-4.2,7.5-4.2c4.1,0,8.3,2.8,8.3,10.6v14.6
			h-5.9V104c0-3.5-1.3-6.2-4.5-6.2c-2.4,0-4,1.7-4.6,3.7c-0.2,0.5-0.3,1.3-0.3,2v14.5h-5.9L273.6,100.7L273.6,100.7z"/>
	</g>
</g>
</svg>
