<svg id="Layer_1" data-name="Layer 1" xmlns="http://www.w3.org/2000/svg" viewBox="0 0 432.17 551.74">
  <defs>
    <style>
      .cls-1{fill:#fff}
    </style>
  </defs>
  <path class="cls-1" d="M283.12 429v10.58a6.92 6.92 0 00-5.67-2.31 8.15 8.15 0 00-5.67 2.08c-2.31 2.34-2.35 6.31-2.35 9.79s0 7.5 2.35 9.82a8.28 8.28 0 005.73 2.1 7 7 0 005.75-2.45v2.17h5.67V429zm-4 26.83c-3.48 0-3.93-2.89-3.93-6.69s.45-6.66 3.93-6.66 4 2.87 4 6.66-.47 6.73-3.97 6.73zM314.55 448.42c0-6.39-3.66-11.11-10.13-11.11-6 0-10.13 4.27-10.13 11.87 0 9.41 5.26 11.92 10.75 11.92a11.07 11.07 0 008.84-3.66l-3.52-3.44a6.43 6.43 0 01-5.26 2.19c-3.28 0-5.1-2.19-5.1-5.19h14.55zM300 447a6.68 6.68 0 01.53-2.5 4.34 4.34 0 017.78 0 6.49 6.49 0 01.53 2.5zM327.55 455.93c-1.48 0-2.05-.72-2.05-2.11V429h-5.81v25.13c0 3.31 2 6.65 6.79 6.65h3.3v-4.89zM334.42 437.57v23.25h5.81v-23.25zm-.1-8.71v4.74h5.95v-4.74zM359.14 437.57l-4.69 14.37-4.72-14.37h-6.12l8.57 23.25h4.57l8.51-23.25zM387.36 448.42c0-6.39-3.66-11.11-10.13-11.11-6 0-10.13 4.27-10.13 11.87 0 9.41 5.26 11.92 10.74 11.92a11 11 0 008.84-3.66l-3.52-3.44a6.4 6.4 0 01-5.26 2.19c-3.27 0-5.09-2.19-5.09-5.19h14.55zM372.81 447a6.49 6.49 0 01.53-2.5 4.34 4.34 0 017.78 0 6.68 6.68 0 01.53 2.5zM404.24 437.31a7.91 7.91 0 00-5.85 2.49v-2.23h-5.67v23.25h5.81v-14c0-2.92 2-4.28 3.75-4.28a3.78 3.78 0 013.06 1.4l4.38-4.42a6.94 6.94 0 00-5.48-2.21zM413 437.57v23.25h5.81v-23.25zm-.08-8.71v4.74h5.93v-4.74zM442.26 439.35a7.55 7.55 0 00-5.48-2 7.94 7.94 0 00-5.82 2.41v-2.15h-5.66v23.25h5.81v-14.1c0-3.17 2-4.24 3.89-4.24s3.82 1.07 3.82 4.24v14.06h5.81V446a8.65 8.65 0 00-2.37-6.65zM463.52 437.57v2.19a6.78 6.78 0 00-5.67-2.45 7.83 7.83 0 00-5.58 2c-2.19 2.19-2.38 5.14-2.38 9.21s.19 7 2.38 9.23a7.73 7.73 0 005.52 2.07 6.83 6.83 0 005.55-2.34v2.38c0 2.35-1.21 4.81-4.69 4.81a6 6 0 01-4.56-1.78l-3.6 3.66c2.39 2.31 4.85 3 8.43 3 6.24 0 10.23-4.05 10.23-9.64v-22.34zm-4 17.05c-3.44 0-3.79-3-3.79-6.06s.35-6 3.79-6 3.85 3 3.85 6-.44 6.06-3.88 6.06zM279.64 507.94a4 4 0 01-3.29-1.51c-.9-1.1-1.29-2.72-1.29-5.18s.39-4 1.29-5.13a4 4 0 013.29-1.52 4.74 4.74 0 013.77 1.82l3.93-3.93a10.05 10.05 0 00-7.7-3.11c-4.64 0-10.39 2.46-10.39 11.87s5.75 11.93 10.39 11.93a10.06 10.06 0 007.7-3.17l-3.93-3.89a4.74 4.74 0 01-3.77 1.82zM305.1 489.65v14.06c0 3.17-2.05 4.23-3.89 4.23s-3.85-1.06-3.85-4.23v-14.06h-5.79v14.86c0 2.55.49 4.74 2.36 6.61a7.59 7.59 0 005.5 2.06 8 8 0 005.79-2.41v2.15h5.67v-23.27zM328 498.76l-3.67-.37c-2-.17-2.41-1.15-2.41-2 0-1.14 1-2.23 3.31-2.23a8.12 8.12 0 015.41 1.58l3.56-3.62c-2.23-2.11-5.26-2.73-8.89-2.73-4.72 0-9 2.58-9 7.41 0 4.28 2.58 6.12 6.78 6.53l3.66.35c1.84.18 2.45 1 2.45 2.15 0 1.74-2.08 2.39-4.11 2.39a8.5 8.5 0 01-6.2-2.17l-3.79 3.79c2.95 2.94 6.25 3.35 9.91 3.35 5.48 0 9.86-2.45 9.86-7.59.04-3.94-2.27-6.39-6.87-6.84zM349.79 494.75v-4.42h-4.11v-6.88h-5.82v6.88h-2.45v4.42h2.45v11.5a6.32 6.32 0 006.76 6.67h3.17V508h-2.11c-1.39 0-2-.76-2-2.09v-11.16zM371 492.23a9.67 9.67 0 00-7.25-2.85 9.52 9.52 0 00-7.18 2.85c-2.09 2.19-2.64 4.83-2.64 9s.55 6.88 2.64 9.07a9.56 9.56 0 007.18 2.86 9.71 9.71 0 007.25-2.86c2.09-2.19 2.62-4.83 2.62-9.07s-.54-6.81-2.62-9zm-4.52 14.69a3.61 3.61 0 01-2.73 1 3.54 3.54 0 01-2.68-1c-1.18-1.21-1.33-3.25-1.33-5.67s.15-4.42 1.33-5.62a3.55 3.55 0 012.68-1 3.62 3.62 0 012.73 1c1.2 1.2 1.35 3.21 1.35 5.62s-.16 4.46-1.36 5.67zM409.46 491.43a8.1 8.1 0 00-5.71-2.05 8.81 8.81 0 00-7 2.95 7.24 7.24 0 00-6.16-2.95 8.08 8.08 0 00-5.81 2.42v-2.15h-5.67v23.27H385v-14.08c0-3.17 2.05-4.24 3.87-4.24s3.85 1.07 3.85 4.24v14.08h5.81v-14.2a3.74 3.74 0 013.87-4.12c1.84 0 3.84 1.07 3.84 4.24v14.08H412V498a8.78 8.78 0 00-2.54-6.57zM437.37 500.5c0-6.39-3.66-11.12-10.13-11.12-6 0-10.15 4.28-10.15 11.87 0 9.42 5.28 11.93 10.76 11.93a11.13 11.13 0 008.84-3.66l-3.52-3.44a6.42 6.42 0 01-5.28 2.19c-3.25 0-5.07-2.19-5.07-5.18h14.55zm-14.55-1.4a6.13 6.13 0 01.53-2.49 4.32 4.32 0 017.76 0 6.13 6.13 0 01.53 2.49zM454.23 489.38a7.85 7.85 0 00-5.85 2.5v-2.23h-5.67v23.27h5.81v-14c0-3 2-4.3 3.75-4.3a3.88 3.88 0 013.09 1.39l4.38-4.42a7.08 7.08 0 00-5.51-2.21zM278.05 560.08c-1.48 0-2.07-.71-2.07-2.1V533.2h-5.79v25.14c0 3.3 2 6.65 6.77 6.65h3.32v-4.91zM300.08 544.33a10.47 10.47 0 00-14.4 0c-2.11 2.17-2.64 4.81-2.64 9s.53 6.88 2.64 9.07a10.49 10.49 0 0014.4 0c2.11-2.19 2.64-4.83 2.64-9.07s-.53-6.83-2.64-9zm-4.5 14.67a3.64 3.64 0 01-2.72 1 3.56 3.56 0 01-2.68-1c-1.21-1.21-1.33-3.25-1.33-5.67s.12-4.42 1.33-5.63a3.64 3.64 0 012.68-1 3.72 3.72 0 012.72 1c1.21 1.21 1.35 3.22 1.35 5.63s-.14 4.46-1.35 5.67zM320.32 541.73l-4.64 14.36-4.83-14.36h-6.12l8 21.61-1 2.86c-.6 1.68-1.25 2.09-2.91 2.09h-1.35v5.22h2.29a6.76 6.76 0 005-1.78 8.39 8.39 0 001.73-3l10-27zM337.1 541.46c-3.89 0-6.12.72-8.39 3.21l3.71 3.63a5 5 0 014.46-1.93c3.09 0 4.33 1.11 4.33 3.67v1.14h-5.5c-5.4 0-7.94 3.05-7.94 6.75a7.49 7.49 0 001.92 5.22c1.37 1.39 3.3 2.05 5.94 2.05a7 7 0 005.71-2.23v2H347v-15.3c0-5.45-3.37-8.21-9.9-8.21zm4.11 15a3.87 3.87 0 01-.85 3c-1 1-2.05 1.1-3.67 1.1-2.27 0-3.33-1.06-3.33-2.68s1.14-2.62 3.25-2.62h4.6zM360.9 560.08c-1.47 0-2.07-.71-2.07-2.1V533.2H353v25.14c0 3.3 2 6.65 6.78 6.65h3.31v-4.91zM378.21 546.82v-4.42h-4.11v-6.87h-5.79v6.87h-2.46v4.42h2.46v11.52A6.3 6.3 0 00375 565h3.17v-4.91h-2.09c-1.39 0-2-.75-2-2.1v-11.17zM396 541.73l-4.64 14.36-4.81-14.36h-6.15l7.94 21.61-1 2.86c-.57 1.68-1.25 2.09-2.91 2.09h-1.33v5.22h2.27a6.8 6.8 0 005-1.78 8.71 8.71 0 001.74-3l9.94-27zM172.07 212.58c-4.32-4.17-10.23-6.87-19.58-8.2l-12.12-1.8a17.21 17.21 0 01-9.49-4.18 10.41 10.41 0 01-3-7.61c0-7.3 5.18-13.44 15.84-13.44 6.77 0 14.55.9 21 7.32l12.69-13c-8.8-8.8-19-12.38-33.15-12.38-22.18 0-35.73 13.28-35.73 32.23 0 9 2.46 15.84 7.35 20.91 4.62 4.63 11.11 7.45 19.89 8.8l12.4 1.8c4.75.74 7.06 1.78 9.06 3.72 2.17 2.09 3.18 5.22 3.18 9 0 8.51-6.35 13.13-18.16 13.13-9.51 0-18.29-2.25-24.78-9l-13 13.45c10.09 10.6 21.9 14 37.47 14 21.46 0 38-11.64 38-32.23.06-9.38-2.39-17.1-7.87-22.52zM259.1 212c5.17-2.54 12.66-10.15 12.66-22 0-18.19-11.66-29.83-31.69-29.83h-41.22v106.29h43c18.29 0 31.41-10.74 31.41-30.59-.04-14.18-7.98-20.87-14.16-23.87zm-40.21-33.3h19.6c8.49 0 13.26 4.93 13.26 12.23s-4.77 12.24-13.26 12.24h-19.6zm20.89 69.3h-20.89v-26.17h20.89c9.09 0 13.4 5.84 13.4 13S248.87 248 239.78 248zM321.9 160.2v70.45c0 12.24-6.35 18.21-16.13 18.21-6.63 0-9.8-2.53-13.11-6l-13.26 13.62c7.63 7.9 15.26 10.88 26.37 10.88 19 0 36.16-12.38 36.16-35.83V160.2z" transform="translate(-36.97 -21.77)"/>
  <path class="cls-1" d="M172.07 212.58c5.48 5.39 7.94 13.14 7.94 22.55 0 20.59-16.58 32.23-38 32.23-15.57 0-27.38-3.41-37.47-14l13-13.45c6.49 6.71 15.27 9 24.78 9 11.81 0 18.16-4.62 18.16-13.13 0-3.75-1-6.88-3.18-9-2-1.94-4.31-3-9.06-3.72l-12.4-1.8c-8.78-1.35-15.27-4.17-19.89-8.8-4.89-5.07-7.35-11.95-7.35-20.91 0-18.95 13.55-32.23 35.73-32.23 14.14 0 24.35 3.58 33.15 12.38l-12.69 13c-6.48-6.42-14.26-7.32-21-7.32-10.66 0-15.84 6.14-15.84 13.44a10.41 10.41 0 003 7.61 17.21 17.21 0 009.49 4.18l12.12 1.8c9.28 1.3 15.19 4 19.51 8.17zM259.1 212c5.17-2.54 12.66-10.15 12.66-22 0-18.19-11.66-29.83-31.69-29.83h-41.22v106.29h43c18.29 0 31.41-10.74 31.41-30.59-.04-14.18-7.98-20.87-14.16-23.87zm-40.21-33.3h19.6c8.49 0 13.26 4.93 13.26 12.23s-4.77 12.24-13.26 12.24h-19.6zm20.89 69.3h-20.89v-26.17h20.89c9.09 0 13.4 5.84 13.4 13S248.87 248 239.78 248zM341.93 160.2v71.33c0 23.45-17.15 35.83-36.16 35.83-11.11 0-18.74-3-26.37-10.88l13.26-13.59c3.31 3.44 6.48 6 13.11 6 9.78 0 16.13-6 16.13-18.21V160.2z" transform="translate(-36.97 -21.77)"/>
  <path class="cls-1" d="M224.13 21.77C120.75 21.77 37 105.56 37 208.92a187.24 187.24 0 00187.13 187.15c103.35 0 187.13-83.79 187.13-187.15S327.48 21.77 224.13 21.77zm0 355.7a168.17 168.17 0 01-128.51-59.65h172.67v-18.58H81.91a167.46 167.46 0 01-26.34-90.32c0-92.94 75.61-168.55 168.56-168.55S392.68 116 392.68 208.92s-75.63 168.55-168.55 168.55z" transform="translate(-36.97 -21.77)"/>
</svg>
