<svg id="Layer_1" data-name="Layer 1" xmlns="http://www.w3.org/2000/svg" viewBox="0 0 545.71 545.74"><defs><style>.cls-1{fill:#fff;}</style></defs><path class="cls-1" d="M233.94,300c-6.29-6.09-14.91-10-28.55-12l-17.66-2.62c-6.09-.87-10.92-3.25-13.84-6.09a15.17,15.17,0,0,1-4.42-11.1c0-10.65,7.55-19.6,23.09-19.6,9.88,0,21.21,1.32,30.67,10.68l18.5-18.94C228.9,227.51,214,222.29,193.4,222.29c-32.34,0-52.09,19.36-52.09,47,0,13.07,3.58,23.09,10.71,30.49,6.74,6.74,16.2,10.86,29,12.83l18.08,2.62c6.92,1.08,10.29,2.6,13.21,5.43,3.16,3.05,4.63,7.61,4.63,13.07,0,12.41-9.25,19.15-26.47,19.15-13.87,0-26.67-3.28-36.13-13.06l-18.91,19.6c14.71,15.45,31.92,20.44,54.63,20.44,31.29,0,55.46-17,55.46-47C245.52,319.13,241.94,307.82,233.94,300Z" transform="translate(-36.97 -21.77)"/><path class="cls-1" d="M360.83,299.11c7.55-3.7,18.47-14.8,18.47-32,0-26.52-17-43.5-46.22-43.5H273V378.53h62.62c26.67,0,45.8-15.66,45.8-44.6C381.42,313.25,369.84,303.47,360.83,299.11ZM302.2,250.57h28.59c12.38,0,19.33,7.19,19.33,17.84s-6.95,17.84-19.33,17.84H302.2Zm30.47,101H302.2v-38.1h30.47c13.24,0,19.54,8.51,19.54,19S345.91,351.56,332.67,351.56Z" transform="translate(-36.97 -21.77)"/><path class="cls-1" d="M452.39,223.6V326.32c0,17.84-9.25,26.55-23.51,26.55-9.66,0-14.29-3.69-19.12-8.71L390.43,364c11.12,11.52,22.25,15.88,38.45,15.88,27.72,0,52.72-18.05,52.72-52.25v-104Z" transform="translate(-36.97 -21.77)"/><path class="cls-1" d="M233.94,300c8,7.84,11.58,19.15,11.58,32.88,0,30-24.17,47-55.46,47-22.71,0-39.92-5-54.63-20.44l18.91-19.6c9.46,9.78,22.26,13.06,36.13,13.06,17.22,0,26.47-6.74,26.47-19.15,0-5.46-1.47-10-4.63-13.07-2.92-2.83-6.29-4.35-13.21-5.43L181,312.6c-12.8-2-22.26-6.09-29-12.83-7.13-7.4-10.71-17.42-10.71-30.49,0-27.63,19.75-47,52.09-47,20.61,0,35.5,5.22,48.33,18.05l-18.5,18.94c-9.46-9.36-20.79-10.68-30.67-10.68-15.54,0-23.09,9-23.09,19.6a15.17,15.17,0,0,0,4.42,11.1c2.92,2.84,7.75,5.22,13.84,6.09L205.39,288C219,290,227.65,293.89,233.94,300Z" transform="translate(-36.97 -21.77)"/><path class="cls-1" d="M360.83,299.11c7.55-3.7,18.47-14.8,18.47-32,0-26.52-17-43.5-46.22-43.5H273V378.53h62.62c26.67,0,45.8-15.66,45.8-44.6C381.42,313.25,369.84,303.47,360.83,299.11ZM302.2,250.57h28.59c12.38,0,19.33,7.19,19.33,17.84s-6.95,17.84-19.33,17.84H302.2Zm30.47,101H302.2v-38.1h30.47c13.24,0,19.54,8.51,19.54,19S345.91,351.56,332.67,351.56Z" transform="translate(-36.97 -21.77)"/><path class="cls-1" d="M481.6,223.6v104c0,34.2-25,52.25-52.72,52.25-16.2,0-27.33-4.36-38.45-15.88l19.33-19.81c4.83,5,9.46,8.71,19.12,8.71,14.26,0,23.51-8.71,23.51-26.55V223.6Z" transform="translate(-36.97 -21.77)"/><path class="cls-1" d="M309.84,21.77C159.12,21.77,37,143.94,37,294.64A271.11,271.11,0,0,0,88,453.42c49.53,69.07,130.41,114.09,221.85,114.09,150.7,0,272.84-122.18,272.84-272.87S460.54,21.77,309.84,21.77Zm0,518.62a245.25,245.25,0,0,1-187.36-87H374.23V426.33H102.49a244.26,244.26,0,0,1-38.4-131.69c0-135.51,110.24-245.75,245.75-245.75S555.59,159.13,555.59,294.64,445.32,540.39,309.84,540.39Z" transform="translate(-36.97 -21.77)"/></svg>