<svg xmlns="http://www.w3.org/2000/svg" viewBox="0 0 545.71 545.74">
  <path d="M315.74 248.69c0 10.77-7 18-19.49 18h-28.82v-36h28.82c12.49 0 19.49 7.24 19.49 18M317.85 313.23c0 10.53-6.35 19.32-19.71 19.32h-30.71v-38.43h30.71c13.36 0 19.71 8.57 19.71 19.1" fill="#e30613"/>
  <path d="M444.59 305.83c0 34.19-25 52.24-52.72 52.24-16.2 0-27.32-4.35-38.45-15.87l19.33-19.81c4.84 5 9.46 8.71 19.12 8.71 14.27 0 23.51-8.71 23.51-26.54V201.83h29.21zm-146 50.93h-62.56V201.83h60.09c29.2 0 46.21 17 46.21 43.5 0 17.21-10.92 28.31-18.47 32 9 4.36 20.59 14.14 20.59 34.82 0 28.94-19.13 44.6-45.8 44.6m-145.56 1.32c-22.71 0-39.92-5-54.63-20.43l18.91-19.6c9.46 9.78 22.26 13.06 36.13 13.06 17.22 0 26.47-6.74 26.47-19.15 0-5.46-1.47-10-4.62-13.07-2.93-2.83-6.3-4.35-13.22-5.43l-18.08-2.62c-12.8-2-22.26-6.09-29-12.83-7.12-7.4-10.71-17.42-10.71-30.49 0-27.63 19.76-47 52.1-47 20.62 0 35.5 5.22 48.33 18.05l-18.5 19c-9.46-9.37-20.79-10.69-30.67-10.69-15.54 0-23.09 9-23.09 19.61a15.23 15.23 0 004.41 11.09c2.93 2.84 7.76 5.22 13.85 6.09l17.65 2.57c13.64 1.93 22.26 5.87 28.55 12 8 7.84 11.58 19.15 11.58 32.88 0 30-24.17 47-55.46 47M272.87 0C122.15 0 0 122.17 0 272.87a271.41 271.41 0 0033.87 131.69h303.39v27.09H51.02c49.57 69.06 130.41 114.09 221.85 114.09 150.7 0 272.84-122.18 272.84-272.87S423.59 0 272.87 0" fill="#e30613"/>
</svg>
